<?xml version="1.0" encoding="UTF-8" standalone="no"?>
<!-- Created with Inkscape (http://www.inkscape.org/) -->

<svg
   width="210mm"
   height="297mm"
   viewBox="0 0 210 297"
   version="1.1"
   id="svg1"
   xml:space="preserve"
   xmlns="http://www.w3.org/2000/svg"
   xmlns:svg="http://www.w3.org/2000/svg"><defs
     id="defs1" /><g
     id="layer1"><path
       style="fill:#ffffff;fill-opacity:1"
       d="M 103.37089,178.68577 C 51.243033,173.2083 28.995453,109.7712 66.573842,73.762106 105.51686,36.445386 170.04589,63.877256 170.04589,117.74901 c 0,36.00818 -31.33874,64.64982 -66.675,60.93676 z m 10.71562,-2.73735 c 25.7372,-2.17293 47.32704,-21.54797 52.23921,-46.88023 0.89613,-4.62136 1.41573,-11.33184 0.8759,-11.31181 -1.55052,0.0575 -2.08377,1.50774 -1.38208,3.75872 0.39591,1.27006 0.58607,2.22807 0.42257,2.12891 -0.16349,-0.0992 -0.99497,-0.6922 -1.84772,-1.31785 -1.89267,-1.38863 -1.73173,-1.38892 -3.56287,0.006 -2.23442,1.70257 -2.19276,1.69913 -1.7306,0.14286 0.2247,-0.75664 0.51706,-1.66111 0.64968,-2.00993 0.42311,-1.11288 0.27643,-1.37103 -1.50666,-2.65172 -1.74778,-1.25533 -1.74778,-1.25533 0.58448,-1.38762 2.33226,-0.13229 2.33226,-0.13229 3.03456,-2.38125 0.42175,-1.35058 0.76915,-2.09042 0.86967,-1.85209 0.0921,0.21829 0.4463,1.23032 0.78721,2.24896 0.79582,2.37793 3.8802,3.11579 3.8802,0.92824 0,-19.553794 -13.43686,-40.429964 -32.01459,-49.739464 -35.968671,-18.02428 -78.600257,4.3907 -84.280521,44.313314 -0.984305,6.91799 1.592952,10.0537 3.485871,4.2412 0.842908,-2.58827 0.809553,-2.58982 1.681679,0.0778 0.66401,2.03103 0.66401,2.03103 3.024556,2.10814 2.360546,0.0771 2.360546,0.0771 0.529167,1.41175 -1.007259,0.73406 -1.85633,1.35931 -1.886826,1.38945 -0.03049,0.0301 0.241085,0.98858 0.603512,2.12987 0.818156,2.57639 0.77496,2.61482 -1.248802,1.11094 -2.00942,-1.49323 -1.830772,-1.49714 -3.92668,0.086 -2.075107,1.56746 -1.974248,1.65889 -1.147882,-1.04059 0.681246,-2.22541 0.681246,-2.22541 -0.07902,-2.84817 -1.572907,-1.28842 -1.560794,-1.29834 -1.484918,1.21532 1.00158,33.18095 30.11038,58.93606 63.430904,56.1229 z m -7.50441,-1.02143 c -0.30451,-0.19292 -0.30451,-0.24865 0,-0.35792 0.27875,-0.10002 0.18714,-0.46958 -0.40339,-1.62718 -0.42022,-0.82377 -0.80991,-1.45189 -0.86598,-1.39583 -1.09541,1.09541 -1.87321,2.68455 -1.46557,2.99433 0.39874,0.30302 0.35972,0.34064 -0.34398,0.33162 -1.19175,-0.0153 -2.00979,-0.36461 -1.29289,-0.55208 1.89835,-0.49643 3.85494,-5.54843 2.41737,-6.24174 -0.51311,-0.24746 -0.41263,-0.28701 0.7276,-0.28642 1.62117,8.4e-4 2.67745,0.31889 1.81132,0.54539 -1.50956,0.39476 -0.17801,5.0155 1.85581,6.44004 0.64223,0.44984 -1.73626,0.59584 -2.44029,0.14979 z m 4.72629,-0.12719 c 0,-0.20009 -0.0694,-0.76564 -0.15411,-1.25677 -0.15368,-0.89045 -0.15275,-0.89138 0.33072,-0.32863 1.9319,2.2487 4.85047,1.13758 4.85047,-1.84661 0,-2.39462 -1.78383,-3.86377 -3.77307,-3.10746 -0.96217,0.36582 -0.99065,2.93452 -0.0325,2.93452 1.00483,0 0.18536,0.47966 -1.02305,0.59881 -1.58573,0.15637 -1.81421,0.0705 -1.13481,-0.42624 0.39864,-0.2915 0.44859,-0.56186 0.29412,-1.59199 -0.45554,-3.0377 5.3171,-3.09977 6.82111,-0.0733 1.26605,2.54759 -1.13054,5.437 -4.2432,5.11575 -0.79255,-0.0818 -1.40649,-0.038 -1.40649,0.1003 0,0.13501 -0.11906,0.24547 -0.26458,0.24547 -0.14552,0 -0.26458,-0.16371 -0.26458,-0.3638 z m -15.345841,-1.28412 c -1.01649,-0.22909 -1.10766,-0.29957 -0.62336,-0.48192 0.88439,-0.33301 2.18525,-6.33683 1.37302,-6.33683 -0.16978,0 -0.23875,-0.0699 -0.15328,-0.1554 0.0855,-0.0855 0.84946,-0.006 1.69775,0.17558 1.26736,0.27198 1.42441,0.36059 0.88087,0.49705 -1.11967,0.28112 -2.32742,5.7942 -1.38906,6.34075 0.61614,0.35887 -0.0882,0.3434 -1.78594,-0.0392 z m 24.420661,-0.72262 c -3.43213,-2.09269 -1.10422,-7.68505 2.76529,-6.6431 2.31397,0.62308 3.44164,3.44807 2.19352,5.49507 -0.99298,1.62853 -3.29623,2.16177 -4.95881,1.14803 z m 3.60597,-0.70785 c 1.43594,-1.82549 -0.0244,-5.50518 -2.16075,-5.44444 -2.96155,0.0842 -2.07714,6.14158 0.89671,6.14158 0.45802,0 0.9131,-0.25098 1.26404,-0.69714 z m -31.380231,0.63754 c -0.76861,-0.24718 -0.9374,-0.52619 -1.98438,-3.28019 -0.62937,-1.65551 -1.21162,-3.01007 -1.29388,-3.01012 -0.42212,-2.6e-4 -1.54743,3.99401 -1.16643,4.14022 1.03205,0.39603 0.22936,0.53366 -0.866811,0.14862 -0.943578,-0.33143 -1.112649,-0.46333 -0.678442,-0.52928 0.561621,-0.0853 1.310012,-1.66017 2.446713,-5.14871 0.47802,-1.46708 0.62266,-1.30076 2.02123,2.3241 1.43033,3.70721 1.40558,3.70129 2.38493,0.57001 0.38746,-1.23883 0.41868,-1.63734 0.16064,-2.05053 -0.38734,-0.62022 -0.2308,-0.61798 1.13941,0.0163 0.77899,0.36061 0.90967,0.4951 0.49512,0.50955 -0.59121,0.0206 -0.62322,0.0789 -1.8089,3.29227 -0.8115,2.19932 -0.80936,2.13371 -0.0915,2.80246 0.63234,0.58911 0.5115,0.62345 -0.75766,0.21529 z m 38.244821,-2.67782 c 0.40052,-0.48259 -1.60938,-5.73367 -2.19125,-5.72489 -0.8233,0.0124 -2.40945,1.23634 -2.48889,1.92051 -0.12619,1.08663 -0.57774,0.86531 -0.57774,-0.28317 0,-1.00413 0,-1.00413 2.41883,-2.05052 3.15416,-1.36449 3.08423,-1.34513 2.50632,-0.69394 -0.73004,0.82261 1.39181,5.85797 2.47649,5.87696 0.6251,0.0109 0.60849,0.0429 -0.25789,0.49556 -1.51404,0.79111 -2.32509,0.98872 -1.88587,0.45949 z M 82.647152,168.4309 c -0.54758,-0.3716 -1.109375,-0.67563 -1.248433,-0.67563 -0.340162,0 -0.324381,-0.0966 0.193045,-1.18165 0.518521,-1.08735 0.859122,-1.22517 0.677305,-0.27405 -0.190597,0.99704 0.599021,2.0357 1.470808,1.93469 1.0091,-0.11691 1.029167,-0.80206 0.07588,-2.59062 -1.77762,-3.33515 1.033169,-5.65376 3.398652,-2.80352 0.18779,0.22627 0.447009,0.34616 0.576042,0.26641 0.373128,-0.23061 0.273248,0.36885 -0.214685,1.28844 -0.449289,0.84676 -0.449289,0.84676 -0.617554,-0.13157 -0.233008,-1.35474 -0.705088,-1.84316 -1.688746,-1.74717 -1.136245,0.11088 -1.188843,0.93406 -0.174522,2.73134 1.571177,2.78398 -0.0087,4.83856 -2.447789,3.18333 z m 52.606028,-1.12611 c -4.00111,-1.06218 -3.42583,-7.22244 0.67448,-7.22244 4.42613,0 5.11429,6.60884 0.75326,7.23409 -0.49421,0.0709 -1.1367,0.0656 -1.42774,-0.0116 z m 2.77812,-1.13702 c 1.70198,-1.70197 -1.04049,-6.1535 -3.26901,-5.30622 -1.297,0.49311 -1.58245,1.98846 -0.70712,3.70425 1.01131,1.98232 2.85355,2.72455 3.97613,1.60197 z m -60.986457,-1.19998 c -2.728362,-1.96233 -2.678625,-1.89191 -1.955583,-2.76877 0.50075,-0.60728 0.535579,-0.61578 0.425206,-0.10373 -0.145459,0.67483 0.187578,1.32658 0.862402,1.68774 0.725805,0.38844 3.8515,-3.89735 3.593142,-4.92673 -0.169407,-0.67498 -0.169407,-0.67498 1.054166,0.20373 1.512805,1.08641 1.5689,1.17459 0.740155,1.16351 -1.091171,-0.0146 -4.098607,4.46093 -3.377619,5.02642 0.314787,0.24689 0.839495,0.35368 1.369888,0.27878 0.859673,-0.12138 0.859673,-0.12138 0.396875,0.51509 -0.59559,0.8191 -0.360618,0.90043 -3.108632,-1.07604 z m 27.252087,-0.12629 c -11.204681,-1.01575 -21.898302,-6.35303 -29.978681,-14.96261 -2.162288,-2.3039 -3.581166,-3.23275 -5.021778,-3.28743 -0.0415,-0.002 0.0478,0.22744 0.198438,0.50891 0.764333,1.42817 0.09872,2.55484 -2.515625,4.25815 -1.472934,0.95966 -1.733896,1.24024 -1.634944,1.75788 0.162084,0.84788 0.07055,0.7883 -0.854495,-0.5562 -0.952237,-1.38403 -0.970103,-1.46694 -0.277054,-1.2857 1.346216,0.35204 4.964846,-2.78438 4.651746,-4.03187 -0.524578,-2.09009 -6.430201,-0.77629 -6.350769,1.41283 0.02927,0.80657 -0.189746,0.72039 -0.880905,-0.34663 -0.721115,-1.11328 -0.743366,-1.28801 -0.113966,-0.89494 0.9238,0.57692 2.147811,-0.63805 3.649671,-3.62271 1.377551,-2.73762 0.654475,-5.74373 -1.689543,-7.02409 -1.033884,-0.56474 -6.345009,1.24742 -6.033694,2.05869 0.07482,0.19497 0.03946,0.35449 -0.07857,0.35449 -0.282146,0 -1.867843,-5.10915 -1.653644,-5.32808 0.594959,-0.6081 1.390399,-0.52713 0.979672,0.0997 -0.420879,0.64234 -0.21606,2.00895 0.403626,2.69309 0.470568,0.51952 2.398772,-0.34414 2.199214,-0.98504 -0.444659,-1.42806 -0.656389,-1.77188 -1.095804,-1.77941 -0.693462,-0.0119 0.07191,-0.40906 1.250222,-0.64879 0.856083,-0.17417 0.887173,-0.1589 0.411538,0.20217 -0.437651,0.33223 -0.265891,2.60062 0.194395,2.56732 2.645916,-0.1914 3.284286,-3.0018 0.899997,-3.9622 -0.494387,-0.19914 -0.435403,-0.23605 0.400042,-0.25035 0.97993,-0.0168 0.97993,-0.0168 1.695895,2.3689 0.648402,2.16055 0.768156,2.36997 1.269028,2.21922 0.93523,-0.28146 0.98748,-0.50469 0.425188,-1.81646 -11.875963,-27.70549 9.601081,-61.714874 40.35238,-63.898864 34.59008,-2.45663 60.73945,31.768524 48.37603,63.316144 -0.88893,2.26828 -0.38392,3.35684 0.78725,1.69692 0.42003,-0.59532 0.42003,-0.59532 0.363,0.0398 -0.0916,1.01968 5.61762,3.25303 5.98545,2.34144 0.10474,-0.25958 0.13795,-0.26024 0.15434,-0.003 0.0173,0.27078 -1.74101,4.79888 -1.95611,5.03758 -0.0365,0.0405 -0.41021,-0.0656 -0.83057,-0.23556 -0.7643,-0.30912 -0.7643,-0.30912 -0.10284,-0.48128 0.62449,-0.16254 1.54478,-1.53396 1.57479,-2.34677 0.0117,-0.31725 -1.47779,-1.11098 -2.08484,-1.11098 -0.48594,0 -0.96446,2.12404 -0.53792,2.38766 0.75122,0.46428 0.0868,0.45192 -1.0687,-0.0199 -0.82474,-0.33674 -1.00977,-0.49067 -0.60211,-0.50091 0.58435,-0.0147 1.39586,-1.14839 1.39586,-1.95007 0,-0.53478 -2.37391,-1.41511 -2.6428,-0.98004 -0.69203,1.11973 -0.86971,2.36774 -0.43217,3.03552 0.51528,0.78641 0.39812,0.83879 -0.52429,0.23441 -0.52952,-0.34695 -0.63631,-0.58302 -0.50869,-1.12448 0.14576,-0.61845 0.10861,-0.60049 -0.38069,0.18406 -0.7853,1.25916 -0.19395,2.4379 1.22306,2.4379 3.22491,0 4.70626,4.26305 2.24376,6.45715 -0.31112,0.27722 -0.56568,0.66417 -0.56568,0.8599 0,0.44758 0.006,0.44807 -1.22446,-0.10343 -1.0245,-0.4593 -1.0245,-0.4593 -0.0537,-0.54387 2.87626,-0.25054 3.19981,-3.69695 0.47746,-5.08579 -1.40343,-0.71598 -1.41468,-0.70281 -0.6645,0.7776 0.6604,1.30323 0.6604,1.30323 -0.76576,1.15604 -2.24085,-0.23128 -2.89223,0.0243 -2.69905,1.05917 0.14779,0.79169 0.13246,0.81354 -0.23405,0.3336 -0.21571,-0.28248 -0.3922,-0.65786 -0.3922,-0.83418 0,-0.70119 -3.42926,0.65253 -4.30331,1.69876 -9.73476,11.65233 -25.15228,17.86598 -40.80815,16.4467 z m 11.64167,-1.21565 c 9.81697,-1.46878 17.94764,-5.51084 25.46614,-12.66018 3.11282,-2.95997 3.16896,-3.06837 1.40871,-2.72032 -2.7756,0.5488 -3.94541,-0.80675 -3.97346,-4.6044 -0.0241,-3.26464 -4.73012,-3.41941 -7.80782,-0.25678 -2.49751,2.56643 -4.09925,3.6949 -11.49013,8.0951 -3.11133,1.85235 -6.65235,4.01004 -7.86893,4.79487 -2.78608,1.79732 -2.39921,1.84886 -6.81298,-0.90758 -2.05601,-1.28399 -5.762261,-3.53273 -8.236121,-4.9972 -5.48855,-3.2491 -7.18274,-4.48161 -9.757444,-7.09841 -2.631524,-2.67456 -7.558637,-2.86205 -7.588535,-0.28877 -0.05086,4.37701 -1.323058,5.90101 -4.342425,5.2019 -1.450155,-0.33577 -1.479138,-0.39017 1.252322,2.35073 10.436181,10.47225 25.061503,15.28879 39.750673,13.09104 z m -4.57328,-9.18789 c 1.20561,-0.77608 4.75187,-2.93253 7.88057,-4.7921 10.91126,-6.48521 12.94698,-8.45209 9.09244,-8.78497 -8.12102,-0.70134 -41.328551,-0.17739 -40.868421,0.64481 0.70863,1.26625 4.84937,4.28842 10.43406,7.61543 3.336721,1.98781 7.152191,4.31338 8.478821,5.16793 2.9005,1.86836 2.33754,1.85153 4.98253,0.1489 z m -33.433335,-7.1679 c 0.428669,-0.42867 0.828264,-2.36087 0.638399,-3.08692 -0.202413,-0.77403 -0.987993,-0.62002 -3.668058,0.71911 -3.929798,1.96357 -4.103722,1.79717 -4.321499,-4.13448 -0.150567,-4.10105 -0.150567,-4.10105 -2.549798,-4.17648 -3.731561,-0.11733 -3.765739,-0.0796 -2.210913,2.43799 1.295654,2.09797 1.295654,2.09797 0.142153,4.26632 -1.153501,2.16836 -1.153501,2.16836 0.598911,2.296 0.963827,0.0702 3.121632,0.55326 4.795121,1.07347 4.246688,1.3201 5.724596,1.45608 6.575684,0.60499 z m 68.698275,-0.6076 c 1.60073,-0.50754 3.71409,-0.98591 4.69636,-1.06305 0.98226,-0.0771 1.78594,-0.19353 1.78594,-0.25867 0,-0.0651 -0.49873,-1.03867 -1.10828,-2.16343 -1.10828,-2.04502 -1.10828,-2.04502 0.16609,-4.08966 1.47189,-2.36155 1.47171,-2.36213 -0.78411,-2.50577 -4.0947,-0.26073 -4.09454,-0.26091 -4.09454,4.3797 0,5.7437 -0.28866,6.00323 -4.32693,3.89016 -3.01873,-1.57959 -3.49186,-1.52374 -3.43755,0.40574 0.0825,2.93222 1.43966,3.20066 7.10302,1.40498 z m -71.680971,-2.34144 c 1.261013,-0.66508 2.635336,-1.21898 3.054049,-1.23089 0.886584,-0.0252 1.179288,-1.26479 0.298276,-1.26319 -2.208909,0.004 -6.836885,1.26082 -7.092123,1.92596 -0.718505,1.8724 0.822898,2.10655 3.739798,0.56812 z m 71.495771,0.89175 c 1.42506,-1.42507 -0.59385,-2.57674 -5.70178,-3.25255 -1.35022,-0.17864 -1.38906,-0.16552 -1.38906,0.46944 0,0.50295 0.13833,0.65321 0.60132,0.65321 0.33073,0 1.67018,0.54464 2.97656,1.21031 2.53841,1.29344 3.01448,1.41806 3.51296,0.91959 z m -72.538609,-3.1743 c 1.038779,-0.27345 3.865339,-0.701 6.281243,-0.95009 4.392553,-0.45291 4.392553,-0.45291 3.586503,-1.64353 -1.002398,-1.48065 -2.712568,-4.82965 -3.141304,-6.15156 -0.176988,-0.54571 -0.461391,-0.99001 -0.632006,-0.98734 -2.536879,0.0396 -8.104348,1.32858 -8.666987,2.00652 -0.320662,0.38637 -0.265397,0.38668 0.65132,0.004 1.148509,-0.47988 5.433894,-1.33207 5.643664,-1.1223 0.150383,0.15038 -0.02655,0.19486 -3.193358,0.80267 -2.48487,0.47692 -3.304308,0.94093 -3.250405,1.84053 0.0378,0.63086 0.06355,0.63872 0.920351,0.28083 1.057621,-0.44177 5.325339,-1.27002 5.523412,-1.07195 0.150383,0.15039 -0.02655,0.19486 -3.193358,0.80267 -2.045679,0.39263 -3.343808,0.9715 -3.343808,1.49109 0,0.14512 0.446484,0.0394 0.992188,-0.23491 0.545703,-0.27433 1.468437,-0.57847 2.05052,-0.67589 0.582084,-0.0974 1.400651,-0.2453 1.819039,-0.32864 0.519048,-0.1034 0.703203,-0.0585 0.579697,0.14134 -0.09955,0.16108 -0.446622,0.29287 -0.771262,0.29287 -1.172177,0 -3.755702,0.82906 -4.273307,1.37131 -0.529167,0.55437 -0.529167,0.55437 0,0.34403 0.970749,-0.38585 3.954024,-1.11163 5.159375,-1.25517 1.789248,-0.21307 0.486803,0.22009 -2.069779,0.68837 -2.143917,0.39269 -3.486471,0.97368 -3.486471,1.50877 0,0.14513 0.446484,0.0394 0.992188,-0.23491 0.545703,-0.27432 1.468437,-0.57847 2.05052,-0.67588 0.582084,-0.0974 1.400651,-0.24531 1.819039,-0.32865 0.519048,-0.1034 0.703203,-0.0585 0.579697,0.14134 -0.09955,0.16108 -0.446622,0.29288 -0.771262,0.29288 -1.172177,0 -3.755702,0.82905 -4.273307,1.37131 -0.529167,0.55436 -0.529167,0.55436 0,0.34403 0.970749,-0.38586 3.954024,-1.11163 5.159375,-1.25517 1.789248,-0.21308 0.486803,0.22009 -2.069779,0.68836 -2.143917,0.39269 -3.486471,0.97368 -3.486471,1.50878 0,0.14512 0.446484,0.0394 0.992188,-0.23491 0.545703,-0.27433 1.468437,-0.57848 2.05052,-0.67589 0.582084,-0.0974 1.400651,-0.2453 1.819039,-0.32865 0.519048,-0.10339 0.703203,-0.0585 0.579697,0.14134 -0.09955,0.16108 -0.446622,0.29288 -0.771262,0.29288 -1.172177,0 -3.755702,0.82906 -4.273307,1.37131 -0.529167,0.55437 -0.529167,0.55437 0,0.34403 1.859794,-0.73924 6.217709,-1.57434 6.217709,-1.19148 0,0.1149 -0.68461,0.28861 -1.521355,0.38601 -2.013728,0.23442 -4.041787,0.81698 -4.696354,1.34903 -0.529167,0.43013 -0.529167,0.43013 0,0.23415 0.291042,-0.10779 1.379078,-0.41972 2.417858,-0.69318 z m -1.7564,-6.77702 c 0.886265,-0.4884 4.206357,-1.22344 4.44558,-0.98422 0.06313,0.0631 -0.167162,0.17093 -0.511755,0.23955 -1.211674,0.24129 -3.807339,0.88069 -4.3307,1.0668 -0.291041,0.1035 -0.112448,-0.0415 0.396875,-0.32213 z m 74.375809,7.25971 c -0.35451,-0.42716 -2.75109,-1.12625 -4.73018,-1.37982 -1.05393,-0.13504 -2.28832,-0.63816 -1.56569,-0.63816 0.7125,0 4.81151,0.8755 5.55663,1.18683 1.40683,0.58781 1.24728,-0.0382 -0.16946,-0.66491 -0.62996,-0.27866 -1.82059,-0.58602 -2.64583,-0.68301 -0.82524,-0.097 -1.50044,-0.27153 -1.50044,-0.38787 0,-0.35628 3.34615,0.30721 4.96094,0.98368 0.1819,0.0762 0.33073,0.0225 0.33073,-0.11936 0,-0.36948 -1.75405,-1.01984 -3.7278,-1.38218 -0.93289,-0.17125 -1.9781,-0.36426 -2.3227,-0.4289 -0.34459,-0.0646 -0.57216,-0.1719 -0.50571,-0.23835 0.19942,-0.19942 4.53022,0.63008 5.58027,1.06882 1.40683,0.58781 1.24728,-0.0382 -0.16946,-0.66491 -0.62996,-0.27867 -1.82059,-0.58602 -2.64583,-0.68301 -0.82524,-0.097 -1.50044,-0.27153 -1.50044,-0.38787 0,-0.35628 3.34615,0.30721 4.96094,0.98367 0.1819,0.0762 0.33073,0.0225 0.33073,-0.11935 0,-0.36949 -1.75405,-1.01984 -3.7278,-1.38218 -0.93289,-0.17126 -1.9781,-0.36426 -2.3227,-0.4289 -0.34459,-0.0647 -0.57216,-0.1719 -0.50571,-0.23835 0.19942,-0.19942 4.53022,0.63008 5.58027,1.06881 1.40683,0.58782 1.24728,-0.0382 -0.16946,-0.66491 -0.62996,-0.27866 -1.82059,-0.58602 -2.64583,-0.68301 -0.82524,-0.097 -1.50044,-0.26768 -1.50044,-0.37932 0,-0.29901 2.03515,0.005 3.70169,0.55283 1.43643,0.47225 2.07175,0.45885 1.31773,-0.0278 -0.63709,-0.41119 -2.94038,-1.05808 -4.35796,-1.22396 -0.72761,-0.0851 -1.50151,-0.26112 -1.71979,-0.39105 -0.73466,-0.43731 2.73209,0.0834 4.56406,0.68552 0.98226,0.32285 1.78594,0.49168 1.78594,0.37516 0,-0.45646 -1.33688,-1.04692 -3.15451,-1.39325 -1.04807,-0.19971 -1.96752,-0.42504 -2.04323,-0.50074 -0.26923,-0.26923 2.17854,0.15416 3.60776,0.62404 1.43643,0.47225 2.07175,0.45884 1.31773,-0.0278 -0.63709,-0.41118 -2.94038,-1.05807 -4.35796,-1.22395 -0.72761,-0.0851 -1.50151,-0.26112 -1.71979,-0.39105 -0.73466,-0.43732 2.73209,0.0834 4.56406,0.68552 1.81145,0.59539 2.5025,0.42161 0.92604,-0.23287 -0.86391,-0.35866 -4.15465,-1.01288 -6.75175,-1.34228 -1.38132,-0.17521 -1.39654,-0.16934 -1.68124,0.64736 -0.50473,1.44786 -2.31729,5.03884 -3.16607,6.2725 -1.00677,1.4633 -1.29146,1.29405 2.80166,1.66562 3.50803,0.31846 8.3701,1.18002 9.11301,1.61482 0.57928,0.33904 0.65524,0.31284 0.30759,-0.10605 z m -42.89039,-2.44559 c 7.6566,-0.10858 14.86545,-0.0583 19.80492,0.13817 8.89732,0.35388 7.97273,0.58184 9.82083,-2.42124 3.54722,-5.76403 3.59014,-5.66145 -2.51073,-6.00071 -2.76227,-0.15361 -6.30235,-0.35002 -7.86684,-0.43647 -2.52637,-0.13961 -2.82654,-0.1103 -2.68367,0.262 0.20557,0.53572 -0.41155,0.55293 -1.10196,0.0307 -0.76489,-0.57853 -19.312301,-0.57853 -20.077181,0 -0.66244,0.50104 -0.94162,0.49166 -0.94162,-0.0316 0,-0.45352 -0.0256,-0.45311 -10.715625,0.17062 -2.328334,0.13585 -4.499487,0.24756 -4.824786,0.24824 -0.704983,0.001 -0.267133,1.38639 1.40674,4.44955 2.154716,3.94308 2.312661,4.06308 5.137841,3.90346 1.38244,-0.0781 7.93088,-0.21883 14.552081,-0.31273 z m -13.365011,-2.11824 c 0.22024,-0.5271 0.40043,-1.00335 0.40043,-1.05833 0,-0.47953 0.531,0.10903 0.86462,0.95835 0.35166,0.89524 0.35784,1.05833 0.0401,1.05833 -0.20658,0 -0.37559,-0.11906 -0.37559,-0.26458 0,-0.14552 -0.1786,-0.26458 -0.39688,-0.26458 -0.21828,0 -0.39687,0.11906 -0.39687,0.26458 0,0.14552 -0.12066,0.26458 -0.26814,0.26458 -0.15677,0 -0.10183,-0.39801 0.1323,-0.95835 z m 3.36376,0.64085 c -0.8715,-0.87149 0.21945,-2.34874 1.39999,-1.89573 0.6383,0.24494 0.46214,0.5152 -0.32843,0.50387 -0.60145,-0.009 -0.7276,0.10363 -0.7276,0.64741 0,0.74263 0.84622,1.08408 1.22101,0.49267 0.17505,-0.27621 0.22701,-0.25222 0.23015,0.10626 0.005,0.54869 -1.28721,0.65343 -1.79512,0.14552 z m 2.46063,-0.74083 c 0,-0.67028 0.12126,-1.05833 0.33072,-1.05833 0.18191,0 0.33073,0.17859 0.33073,0.39687 0,0.21828 0.1786,0.39688 0.39688,0.39688 0.21828,0 0.39687,-0.1786 0.39687,-0.39688 0,-0.21828 0.14883,-0.39687 0.33073,-0.39687 0.20946,0 0.33073,0.38805 0.33073,1.05833 0,0.67028 -0.12127,1.05833 -0.33073,1.05833 -0.1819,0 -0.33073,-0.23812 -0.33073,-0.52916 0,-0.29399 -0.17639,-0.52917 -0.39687,-0.52917 -0.22049,0 -0.39688,0.23518 -0.39688,0.52917 0,0.29104 -0.14882,0.52916 -0.33073,0.52916 -0.20946,0 -0.33072,-0.38805 -0.33072,-1.05833 z m 2.78921,0.85989 c 0.0782,-1.39869 1.01894,-1.95263 1.549611,-0.91243 0.57446,1.12605 0.32009,1.53733 -0.482521,0.78014 -0.28046,-0.26458 -0.37483,-0.26458 -0.47184,0 -0.13005,0.35469 -0.61369,0.46217 -0.59525,0.13229 z m 2.370161,-0.85989 c 0,-1.21498 0.12835,-1.27856 0.97514,-0.48305 0.61236,0.57529 0.61236,0.57529 0.61236,0 0,-0.33497 0.16578,-0.57528 0.39688,-0.57528 0.28663,0 0.39687,0.29398 0.39687,1.05833 0,1.21498 -0.12835,1.27856 -0.97513,0.48305 -0.61237,-0.57529 -0.61237,-0.57529 -0.61237,0 0,0.33497 -0.16578,0.57528 -0.39687,0.57528 -0.28664,0 -0.39688,-0.29398 -0.39688,-1.05833 z m 3.07638,0.65378 c -0.30644,-0.79856 -0.16993,-1.42679 0.3732,-1.71746 0.57985,-0.31033 1.5775,-0.12245 1.5775,0.29707 0,0.16071 -0.1867,0.15614 -0.50138,-0.0123 -0.59949,-0.32084 -1.18192,0.2183 -1.03878,0.96157 0.11567,0.60063 1.011,0.80749 1.011,0.23358 0,-0.22895 0.18732,-0.41627 0.41627,-0.41627 0.25349,0 0.38196,0.18106 0.32853,0.46302 -0.12218,0.64472 -1.93102,0.804 -2.16634,0.19076 z m 2.74445,-0.65378 c 0,-0.67028 0.12127,-1.05833 0.33073,-1.05833 0.20947,0 0.33073,0.38805 0.33073,1.05833 0,0.67028 -0.12126,1.05833 -0.33073,1.05833 -0.20946,0 -0.33073,-0.38805 -0.33073,-1.05833 z m 1.32292,0 c 0,-1.21498 0.12835,-1.27856 0.97514,-0.48305 0.61236,0.57529 0.61236,0.57529 0.61236,0 0,-0.31641 0.11906,-0.57528 0.26458,-0.57528 0.14552,0 0.26459,0.497 0.26459,1.10445 0,1.10445 0,1.10445 -0.61237,0.52917 -0.76343,-0.71721 -1.07819,-0.73337 -0.89847,-0.0461 0.0899,0.34392 0.008,0.52916 -0.23372,0.52916 -0.25774,0 -0.37211,-0.32529 -0.37211,-1.05833 z m 3.09935,0.89448 c -0.38471,-0.3847 -0.18646,-1.67094 0.29746,-1.92992 0.53831,-0.2881 1.63027,-0.0993 1.63027,0.28186 0,0.13875 -0.21512,0.1279 -0.50138,-0.0253 -0.59949,-0.32084 -1.18192,0.2183 -1.03878,0.96157 0.11567,0.60063 1.011,0.80749 1.011,0.23358 0,-0.22895 0.12779,-0.41627 0.28398,-0.41627 0.15619,0 0.24451,0.20836 0.19627,0.46302 -0.0902,0.4761 -1.50849,0.8018 -1.87882,0.43146 z m 3.94192,-0.47303 c -0.0879,-0.35028 -0.23262,-0.82653 -0.32157,-1.05833 -0.0896,-0.23356 -0.0273,-0.42145 0.13969,-0.42145 0.16578,0 0.39979,0.26593 0.52003,0.59096 0.21861,0.59097 0.21861,0.59097 0.42187,-0.0495 0.19287,-0.60767 0.22148,-0.61552 0.55933,-0.15348 0.32314,0.44191 0.3716,0.44649 0.52395,0.0495 0.0923,-0.24061 0.27165,-0.43748 0.39848,-0.43748 0.12908,0 0.12609,0.2621 -0.007,0.59531 -0.13056,0.32742 -0.31521,0.83344 -0.41034,1.12448 -0.16422,0.50246 -0.19172,0.49579 -0.54504,-0.13229 -0.3721,-0.66146 -0.3721,-0.66146 -0.5409,-0.0661 -0.21992,0.77564 -0.53811,0.75773 -0.73872,-0.0416 z m 3.06581,0.31938 c -0.97146,-0.97147 0.49483,-2.45916 1.66688,-1.6912 1.12893,0.7397 0.71105,2.0087 -0.66146,2.0087 -0.37835,0 -0.83079,-0.14287 -1.00542,-0.3175 z m 1.53459,-0.74083 c 0,-0.61736 -0.1176,-0.79375 -0.52917,-0.79375 -0.41157,0 -0.52917,0.17639 -0.52917,0.79375 0,0.61736 0.1176,0.79375 0.52917,0.79375 0.41157,0 0.52917,-0.17639 0.52917,-0.79375 z m 1.32291,0 c 0,-1.00834 0.039,-1.05833 0.8246,-1.05833 0.74175,0 0.8116,0.0679 0.69529,0.67639 -0.0752,0.39358 0.0304,0.83609 0.25264,1.05833 0.33286,0.33287 0.31381,0.38194 -0.1483,0.38194 -0.58375,0 -0.93623,-0.73946 -0.67588,-1.41793 0.0926,-0.24135 0.0365,-0.43415 -0.12629,-0.43415 -0.16109,0 -0.29289,0.41672 -0.29289,0.92604 0,0.50932 -0.11906,0.92604 -0.26458,0.92604 -0.14552,0 -0.26459,-0.47625 -0.26459,-1.05833 z m 2.38125,0 c 0,-0.76435 0.11025,-1.05833 0.39688,-1.05833 0.27942,0 0.39687,0.28242 0.39687,0.95434 0,0.73961 0.0893,0.92009 0.39688,0.80206 0.21828,-0.0838 0.39687,-0.037 0.39687,0.10398 0,0.14096 -0.35718,0.25628 -0.79375,0.25628 -0.74965,0 -0.79375,-0.0588 -0.79375,-1.05833 z m 2.11667,0 c 0,-1.03109 0.0236,-1.05833 0.91673,-1.05833 1.10264,0 1.65702,0.73344 1.19994,1.5875 -0.58944,1.10137 -2.11667,0.71956 -2.11667,-0.52917 z m 1.53893,-0.0866 c 0.0593,-0.50119 -0.037,-0.7072 -0.33073,-0.7072 -0.2866,0 -0.41445,0.25166 -0.41445,0.8158 0,1.01228 0.62324,0.92146 0.74518,-0.1086 z m -33.288931,-4.11594 c 0,-0.88588 0.0912,-1.04492 0.66146,-1.15393 0.3638,-0.0695 0.66146,-0.0239 0.66146,0.10144 0,0.12534 -0.1786,0.2279 -0.39688,0.2279 -0.21828,0 -0.39687,0.11906 -0.39687,0.26458 0,0.14552 0.17859,0.26458 0.39687,0.26458 0.21828,0 0.39688,0.11906 0.39688,0.26459 0,0.14552 -0.1786,0.26458 -0.39688,0.26458 -0.21828,0 -0.39687,0.13295 -0.39687,0.29544 0,0.16518 0.23331,0.23443 0.52916,0.15706 0.29105,-0.0761 0.52917,-0.0305 0.52917,0.10144 0,0.13189 -0.35719,0.23981 -0.79375,0.23981 -0.74568,0 -0.79375,-0.0622 -0.79375,-1.02749 z m 2.11667,-0.0308 c 0,-1.03204 0.0229,-1.05834 0.921,-1.05834 1.0359,0 1.55641,0.96631 0.92823,1.72323 -0.74075,0.89255 -1.84923,0.494 -1.84923,-0.66489 z m 1.45521,0 c 0,-0.4127 -0.17094,-0.68713 -0.46303,-0.74339 -0.36176,-0.0697 -0.46302,0.0929 -0.46302,0.74339 0,0.65048 0.10126,0.81305 0.46302,0.74338 0.29209,-0.0563 0.46303,-0.33068 0.46303,-0.74338 z m 1.35669,0.65406 c -0.30595,-0.79728 -0.1826,-1.7124 0.23081,-1.7124 0.27718,0 0.39687,0.27928 0.39687,0.92604 0,0.64147 0.12041,0.92605 0.391831,0.92605 0.42982,0 0.81916,-1.12645 0.54351,-1.57247 -0.0951,-0.15379 -0.0395,-0.27962 0.12335,-0.27962 0.18045,0 0.26409,0.38767 0.21405,0.99219 -0.0925,1.11811 -1.537591,1.66574 -1.900421,0.72021 z m 2.797261,0.0868 c -0.76856,-0.76857 0.33071,-2.30605 1.36501,-1.90915 0.6762,0.25947 0.5102,0.5803 -0.2273,0.43932 -0.59111,-0.113 -0.66146,-0.0388 -0.66146,0.69815 0,0.89087 0.63861,1.13618 1.28568,0.49387 0.26714,-0.26518 0.29824,-0.23896 0.1569,0.13229 -0.20439,0.53686 -1.43421,0.63013 -1.91883,0.14552 z m 2.72166,-0.64085 c 0.22024,-0.5271 0.40043,-1.00335 0.40043,-1.05834 0,-0.47953 0.531,0.10904 0.86462,0.95836 0.35166,0.89523 0.35784,1.05833 0.0401,1.05833 -0.20657,0 -0.37559,-0.11906 -0.37559,-0.26458 0,-0.14553 -0.17859,-0.26459 -0.39687,-0.26459 -0.21829,0 -0.39688,0.11906 -0.39688,0.26459 0,0.14552 -0.12066,0.26458 -0.26813,0.26458 -0.15678,0 -0.10184,-0.39802 0.13229,-0.95835 z m 2.51709,0.0323 c 0,-0.50933 -0.11906,-0.92604 -0.26458,-0.92604 -0.14552,0 -0.26458,-0.0924 -0.26458,-0.20543 0,-0.11299 0.50601,-0.15087 1.12448,-0.0842 0.61846,0.0667 0.91612,0.16786 0.66145,0.22483 -0.33074,0.074 -0.46302,0.3626 -0.46302,1.01022 0,0.62951 -0.12131,0.90664 -0.39687,0.90664 -0.27718,0 -0.39688,-0.27928 -0.39688,-0.92604 z m 1.98438,-0.13229 c 0,-0.67028 0.12127,-1.05834 0.33073,-1.05834 0.20946,0 0.33073,0.38806 0.33073,1.05834 0,0.67027 -0.12127,1.05833 -0.33073,1.05833 -0.20946,0 -0.33073,-0.38806 -0.33073,-1.05833 z m 1.50812,0.74083 c -0.97146,-0.97147 0.49483,-2.45916 1.66688,-1.69121 1.12893,0.73971 0.71105,2.00871 -0.66146,2.00871 -0.37835,0 -0.83079,-0.14288 -1.00542,-0.3175 z m 1.53459,-0.74083 c 0,-0.61737 -0.1176,-0.79375 -0.52917,-0.79375 -0.41157,0 -0.52917,0.17638 -0.52917,0.79375 0,0.61736 0.1176,0.79375 0.52917,0.79375 0.41157,0 0.52917,-0.17639 0.52917,-0.79375 z m 1.27932,-0.0184 c 0.10268,-1.0767 0.10268,-1.0767 0.6855,-0.52917 0.73554,0.691 1.04655,0.69758 0.86893,0.0184 -0.0899,-0.34392 -0.008,-0.52917 0.23373,-0.52917 0.25863,0 0.3721,0.32749 0.3721,1.07395 0,1.11905 -0.13029,1.15381 -1.12448,0.30001 -0.42074,-0.36133 -0.46302,-0.34558 -0.46302,0.17254 0,0.31359 -0.15197,0.57017 -0.33772,0.57017 -0.2354,0 -0.30661,-0.32621 -0.23504,-1.0767 z m 3.96452,0.0444 c 0.0888,-0.9315 1.37074,-1.91125 1.37074,-1.04765 0,0.12534 -0.17859,0.2279 -0.39687,0.2279 -0.21829,0 -0.39688,0.11906 -0.39688,0.26458 0,0.14552 0.17859,0.26458 0.39688,0.26458 0.21828,0 0.39687,0.11906 0.39687,0.26459 0,0.14552 -0.17859,0.26458 -0.39687,0.26458 -0.21829,0 -0.39688,0.17859 -0.39688,0.39687 0,0.21829 -0.15197,0.39688 -0.33772,0.39688 -0.23302,0 -0.3072,-0.32004 -0.23927,-1.03233 z m 2.0763,0.85594 c -0.38627,-0.38626 -0.16439,-1.6635 0.33545,-1.93101 1.15891,-0.62022 2.20004,0.40876 1.70881,1.68888 -0.16137,0.42053 -1.68536,0.60103 -2.04426,0.24213 z m 1.62835,-0.69926 c 0.13613,-0.70686 -0.45951,-1.32433 -0.91381,-0.9473 -0.38596,0.32032 -0.48278,1.08458 -0.17623,1.39112 0.3222,0.3222 0.9953,0.0481 1.09004,-0.44382 z m 1.10567,-0.19945 c 0,-1.05355 0.0172,-1.07343 0.8599,-0.99219 0.7302,0.0704 0.84945,0.17802 0.79062,0.71349 -0.0381,0.34682 0.0658,0.7933 0.23084,0.99219 0.23212,0.27969 0.20583,0.36161 -0.11602,0.36161 -0.22887,0 -0.53748,-0.20836 -0.68581,-0.46302 -0.25684,-0.44097 -0.27007,-0.44097 -0.27773,0 -0.004,0.25466 -0.18664,0.46302 -0.40492,0.46302 -0.28766,0 -0.39688,-0.29585 -0.39688,-1.0751 z m 0.97449,-0.56201 c -0.0845,-0.21107 -0.14715,-0.14837 -0.15985,0.15985 -0.0115,0.27892 0.0511,0.43519 0.13897,0.34727 0.0879,-0.0879 0.0973,-0.31612 0.0209,-0.50712 z m -51.245322,0.38657 c 1.019162,-0.50424 2.471457,-0.81141 7.308137,-1.5457 0.825845,-0.12538 0.825845,-0.12538 0.21314,-2.30259 -1.885764,-6.70096 -2.308361,-12.07745 -2.190406,-27.86747 0.103503,-13.855324 0.0015,-13.160654 1.972024,-13.430744 3.666636,-0.50256 6.263254,-3.14608 7.122049,-7.25069 0.420335,-2.00899 0.596211,-2.16986 2.378187,-2.17531 0.90842,-0.003 2.53055,-0.42864 5.15938,-1.35451 13.460951,-4.74092 16.330871,-4.78909 28.650191,-0.48087 3.91955,1.37072 5.58714,1.83133 6.63016,1.83133 1.80424,0 2.2242,0.34808 2.55378,2.11667 0.73918,3.96659 3.52163,6.82063 7.11418,7.2972 3.08315,0.40899 3.10577,28.512594 0.0325,40.446764 -0.81346,3.1589 -0.78372,3.30892 0.65767,3.31694 1.06411,0.006 4.79974,0.68521 5.95313,1.08253 1.40072,0.48252 1.85208,0.99269 1.85208,2.09341 0,0.97357 0,0.97357 2.18281,0.85542 2.59234,-0.1403 2.30282,0.1067 3.32527,-2.83705 10.54392,-30.35726 -11.69753,-61.793874 -43.7356,-61.816954 -32.284843,-0.0233 -54.40745,31.419834 -43.718821,62.138024 1.003393,2.88367 4.904973,4.02861 5.217172,1.53101 0.117757,-0.94205 0.263107,-1.12305 1.322917,-1.64741 z m 65.088942,-4.25269 c 2.6699,-9.66719 3.37151,-38.867154 0.94483,-39.322404 -3.52659,-0.66159 -6.83359,-3.95529 -7.68441,-7.65349 -0.295,-1.28224 -0.295,-1.28224 -3.06228,-2.00393 -1.52201,-0.39694 -4.27669,-1.27371 -6.12152,-1.94838 -10.07432,-3.68426 -13.85344,-3.63128 -25.160791,0.35274 -2.44086,0.86001 -5.19678,1.70348 -6.12425,1.87437 -1.68063,0.30967 -1.68687,0.31415 -1.848896,1.3274 -0.590467,3.69258 -4.190204,7.36996 -7.866099,8.03577 -1.926361,0.34892 -1.795726,25.987004 0.181971,35.713024 1.268358,6.2376 1.143783,6.05128 3.9202,5.86322 1.329173,-0.09 5.155114,-0.29708 8.502094,-0.46009 5.71681,-0.27845 6.14065,-0.3344 6.99727,-0.92368 1.030171,-0.70866 1.249551,-0.67439 0.820071,0.1281 -0.29533,0.55183 -0.29533,0.55183 8.59535,0.55183 8.89068,0 8.89068,0 8.71221,-0.5623 -0.18635,-0.58714 0.0609,-0.54153 0.93656,0.17278 0.2636,0.21502 2.66253,0.43344 7.14375,0.65042 3.71078,0.17968 7.52078,0.40562 8.46667,0.5021 1.99737,0.20372 1.9436,0.25039 2.64727,-2.29748 z m -41.607171,0.82326 c -0.40018,-0.0647 -0.7276,-0.22503 -0.7276,-0.35624 0,-0.13121 0.32742,-0.41619 0.7276,-0.63329 0.7258,-0.39375 0.72424,-0.39476 -0.62838,-0.40532 -2.69642,-0.0211 -3.69589,-0.47046 -2.28204,-1.02608 2.00356,-0.78736 6.12204,-0.46227 4.95497,0.39111 -0.43902,0.32102 -0.35116,0.35925 0.8153,0.35476 1.30734,-0.005 1.30734,-0.005 0.0755,-0.77872 -2.81,-1.7649 -3.30968,-3.56125 -0.59978,-2.15624 4.355971,2.25847 2.748061,5.43221 -2.33557,4.61002 z M 119.35666,129.9 c -2.78888,-0.80979 -1.06355,-4.03215 2.75266,-5.14107 1.42734,-0.41477 -0.49053,1.95665 -2.50319,3.09515 -1.09497,0.61939 -1.09497,0.61939 0.45386,0.61939 1.35001,0 1.47359,-0.0405 0.96268,-0.3152 -1.485,-0.79856 2.95787,-1.23643 4.78015,-0.47112 1.35372,0.56852 0.59278,0.9977 -1.81451,1.02341 -1.7495,0.0187 -1.7495,0.0187 -0.93086,0.51976 1.33291,0.81586 -1.458,1.32089 -3.70079,0.66968 z m -27.311631,-3.18008 c -2.88333,-0.5897 -3.89175,-1.43034 -2.04758,-1.70689 1.17865,-0.17675 1.17865,-0.17675 -0.12186,-1.20474 -1.61152,-1.27384 -2.127245,-2.09051 -1.32014,-2.09051 1.60716,0 5.73968,3.41774 4.16596,3.44539 -0.1819,0.003 0.18361,0.23922 0.81224,0.52451 1.68985,0.76688 0.67038,1.47381 -1.48862,1.03224 z m 0.1417,-1.72241 c -0.0879,-0.0879 -0.31612,-0.0973 -0.50712,-0.0209 -0.21107,0.0845 -0.14837,0.14715 0.15985,0.15985 0.27892,0.0115 0.43519,-0.0511 0.34727,-0.13896 z m 32.020101,1.844 c -0.75605,-0.22117 -0.53587,-0.54343 0.72603,-1.06263 0.96519,-0.39712 1.08577,-0.51438 0.64047,-0.62279 -0.88509,-0.21549 1.50793,-2.48023 3.22242,-3.0497 2.18473,-0.72565 1.04278,1.27789 -1.42443,2.49914 -1.11397,0.55141 -1.11397,0.55141 0.39177,0.55162 0.82815,1.1e-4 1.57992,0.12023 1.67058,0.26693 0.39774,0.64356 -3.89391,1.80738 -5.22684,1.41743 z m -1.38292,-0.93325 c 0.30091,-1.39347 1.07144,-2.7135 2.12272,-3.63654 1.23519,-1.08451 1.32411,-0.96318 0.63801,0.8706 -0.90837,2.42783 -3.17896,4.70271 -2.76073,2.76594 z m -28.764511,-0.46315 c -0.86359,-1.0089 -2.00884,-3.6077 -1.71802,-3.89852 0.50387,-0.50387 2.41724,1.89657 2.96652,3.72169 0.47534,1.57943 0.009,1.64553 -1.2485,0.17683 z m 8.782321,-0.59055 c -5.234351,-0.93884 -4.559721,-0.16352 -5.261851,-6.0472 -0.81092,-6.79537 -0.81433,-6.20355 0.0363,-6.30143 0.46056,-0.053 0.73532,0.0441 0.74863,0.26458 0.51408,8.51432 0.89524,10.13856 2.362071,10.06532 2.00116,-0.0999 4.61765,0.37511 6.31398,1.14631 1.77631,0.80757 2.3773,0.80836 3.96224,0.005 1.6711,-0.84681 4.25539,-1.29607 6.17431,-1.07336 1.19862,0.13912 1.54395,0.0997 1.56032,-0.17805 0.40463,-6.86339 0.92899,-10.14905 1.63262,-10.23001 0.92509,-0.10644 0.92528,-0.088 0.0655,6.41231 -0.78748,5.95369 0.0983,4.99641 -5.5151,5.9602 -5.68614,0.97627 -6.51192,0.97464 -12.07905,-0.0239 z m 3.70417,-1.36706 c -1.56613,-0.75853 -1.95126,-0.83343 -4.31035,-0.83832 -2.376151,-0.005 -2.599441,-0.0492 -2.697891,-0.53453 -0.10786,-0.53178 -0.93641,-9.76638 -0.93175,-10.3849 0.001,-0.1819 0.24061,-0.33073 0.53165,-0.33073 0.41158,0 0.52917,-0.17638 0.52917,-0.79375 0,-0.9184 0.17785,-0.95003 2.910421,-0.51758 1.95529,0.30944 4.14514,1.28235 5.43455,2.41446 0.87811,0.771 0.87811,0.771 2.62688,-0.42625 2.96007,-2.02655 7.77299,-2.91642 7.59619,-1.40448 -0.0736,0.62938 0.008,0.7276 0.60443,0.7276 0.66705,0 0.68466,0.0409 0.54082,1.25678 -0.13795,1.16592 -0.92491,9.54387 -0.92696,9.86826 -5e-4,0.0797 -0.76042,0.0965 -1.68871,0.0374 -2.05186,-0.13065 -4.10846,0.27843 -5.78181,1.15008 -1.60278,0.83488 -2.32575,0.79838 -4.43664,-0.224 z m 1.39802,-10.0315 c -1.24505,-1.29955 -6.81525,-3.44682 -7.31685,-2.82059 -0.0669,0.0835 0.77928,9.01386 0.86554,9.13469 0.0144,0.0202 0.47269,0.12008 1.01839,0.22198 1.47958,0.27631 4.60389,1.81306 5.35781,2.63536 0.66146,0.72144 0.66146,0.72144 0.73405,-3.84323 0.0726,-4.56466 0.0726,-4.56466 -0.65894,-5.32821 z m 5.91262,7.03012 c 0.94009,-0.34123 1.92845,-0.62043 2.19635,-0.62043 0.553,0 0.59981,-0.23963 1.09982,-5.63022 0.36736,-3.96037 0.47114,-3.74317 -1.60842,-3.36608 -5.14233,0.93249 -6.08798,2.10728 -6.08798,7.56319 0,4.60723 0,4.60723 1.34548,3.6406 0.74002,-0.53164 2.11465,-1.24582 3.05475,-1.58706 z m -8.95257,1.21965 c -0.53927,-0.28478 -1.65862,-0.69442 -2.48745,-0.9103 -1.92135,-0.50045 -1.71124,-0.0547 -2.15086,-4.56288 -0.363111,-3.72353 -0.459311,-4.26988 -0.707431,-4.01777 -1.18384,1.20291 0.968051,9.50721 2.470621,9.53426 0.95641,0.0172 2.09611,0.12219 2.53267,0.23328 1.3004,0.33089 1.37645,0.26947 0.34245,-0.27659 z m 10.43416,0.0802 c 2.68054,-0.16362 2.37561,0.35644 2.84069,-4.8447 0.31225,-3.49202 0.34531,-4.90867 0.10905,-4.6724 -0.13852,0.13852 -0.8596,6.33762 -0.88562,7.61363 -0.006,0.28603 -0.64114,0.59755 -2.05896,1.00958 -1.12778,0.32776 -2.34817,0.7749 -2.71198,0.99367 -0.43852,0.2637 -0.48311,0.33767 -0.13229,0.21948 0.29104,-0.098 1.56864,-0.24171 2.83911,-0.31926 z m -24.289431,0.19465 c -0.35083,-0.6536 -0.49818,-1.4822 -0.50311,-2.82929 -0.004,-1.20316 -0.0996,-1.8124 -0.25834,-1.65365 -0.88564,0.88564 -0.90863,-0.89207 -0.0339,-2.61833 1.31415,-2.59335 2.18617,-1.7629 0.96734,0.92123 -0.40334,0.88825 -0.4337,1.1622 -0.16123,1.45521 0.81227,0.8735 1.20723,3.79994 0.69124,5.1217 -0.18623,0.47704 -0.25329,0.43912 -0.70203,-0.39687 z m 35.517341,0.61911 c -0.63431,-0.63431 0.13174,-5.37986 0.86844,-5.37986 0.52748,0 0.41025,3.73945 -0.15127,4.8253 -0.40779,0.78859 -0.45028,0.82145 -0.71717,0.55456 z m -37.350351,-1.24909 c -1.17887,-0.51452 -3.372846,-3.07244 -2.635295,-3.07244 0.506143,0 2.290305,1.17987 2.991075,1.978 1.23895,1.41108 1.13095,1.74332 -0.35578,1.09444 z m 38.761461,0.0923 c 0,-0.5185 1.98446,-2.36378 2.97656,-2.7678 1.25896,-0.5127 1.26459,-0.17084 0.0199,1.20691 -1.2901,1.42799 -2.99644,2.31684 -2.99644,1.56089 z m -39.375361,-2.89332 c -0.66702,-0.66702 -1.63506,-2.74091 -1.63506,-3.50288 0,-1.06025 2.0256,1.43386 2.53255,3.11831 0.41286,1.37183 0.18668,1.46874 -0.89749,0.38457 z m 39.910341,0.45617 c 0.0186,-1.06063 2.02738,-4.16719 2.69456,-4.16719 0.6245,0 -1.06789,3.78445 -1.88887,4.22383 -0.66509,0.35595 -0.81276,0.34557 -0.80569,-0.0566 z m -0.95848,-2.20437 c -0.72653,-1.23974 -1.25625,-4.06667 -0.69729,-3.72121 0.53332,0.3296 1.63455,2.49494 1.80226,3.54373 0.24548,1.53516 -0.26158,1.6166 -1.10497,0.17748 z m 1.48442,-1.45368 c 0.003,-1.01773 1.00558,-3.36115 1.6751,-3.91498 1.10183,-0.91143 0.11138,3.14026 -1.0297,4.21224 -0.64799,0.60876 -0.64799,0.60876 -0.6454,-0.29726 z m -40.565031,0.0765 c -0.944905,-1.04411 -1.798257,-4.66498 -0.980283,-4.15945 0.530543,0.32789 1.568713,2.41706 1.743083,3.50767 0.19451,1.21668 -0.0571,1.43162 -0.7628,0.65178 z m 0.90338,-2.11999 c -0.51138,-0.95553 -0.30883,-4.55106 0.25638,-4.55106 0.41827,0 0.84374,2.04916 0.66749,3.21481 -0.24249,1.6038 -0.54586,2.04257 -0.92387,1.33625 z m 39.011271,0.23356 c -0.42227,-0.68325 -0.47275,-3.32109 -0.0814,-4.25545 0.38782,-0.92605 0.38782,-0.92605 0.68934,0.13229 0.5788,2.03164 0.10126,5.27061 -0.60791,4.12316 z m -37.715801,-0.85515 c 0.002,-0.74099 1.10005,-2.11612 2.29449,-2.87362 1.55142,-0.98388 1.68888,-0.85225 0.72146,0.69088 -0.79406,1.2666 -3.01787,2.87604 -3.01595,2.18274 z m 35.982341,-0.15699 c -2.09496,-1.37171 -3.64375,-3.91322 -1.8086,-2.96784 0.89158,0.4593 2.06163,1.59636 2.49368,2.42337 0.6023,1.15289 0.44051,1.28147 -0.68508,0.54447 z m -35.840321,-1.63846 c -0.54219,-0.87729 0.22858,-4.77985 0.94405,-4.77985 0.5302,0 0.35917,2.65317 -0.26389,4.09377 -0.33428,0.77289 -0.51429,0.95446 -0.68016,0.68608 z m 35.985031,-0.60827 c -0.6018,-1.44032 -0.74336,-2.26306 -0.55871,-3.24728 0.23538,-1.25473 0.54804,-1.16145 1.05059,0.31345 0.79115,2.32189 0.35053,4.94998 -0.49188,2.93383 z m -34.539191,-0.93045 c 0.003,-1.10708 2.85362,-4.33353 3.12066,-3.53239 0.14309,0.42925 -0.74646,1.95612 -1.74965,3.00322 -1.05181,1.09784 -1.37304,1.22183 -1.37101,0.52917 z m 32.737731,-0.0989 c -0.90064,-0.67188 -2.12053,-2.69951 -2.00016,-3.32454 0.19036,-0.98846 3.12774,2.38838 3.12774,3.59568 0,0.41941 -0.29797,0.34776 -1.12758,-0.27114 z m -31.355151,-6.95175 c -2.22196,-2.22196 -2.22196,-2.22196 -2.13368,-0.66097 0.0883,1.56098 0.0883,1.56098 -0.97004,1.53961 -0.58209,-0.0118 -0.90951,-0.0814 -0.72761,-0.15482 0.22713,-0.0917 0.33073,-0.8182 0.33073,-2.31935 0,-2.341394 -0.19079,-2.736124 -1.59294,-3.295554 -0.632674,-0.25243 -0.624525,-0.26234 0.22898,-0.27852 0.77207,-0.0146 1.15147,0.26175 2.97347,2.16604 2.08848,2.182824 2.08848,2.182824 2.09157,0.714384 0.002,-0.807644 -0.13979,-1.611314 -0.31441,-1.785944 -0.24695,-0.24694 -0.0588,-0.3175 0.84666,-0.3175 0.90547,0 1.09361,0.0706 0.84667,0.3175 -1.28025,1.28026 0.0569,5.767924 1.71857,5.767924 0.35995,0 0.5693,0.116 0.47747,0.26458 -0.49043,0.79354 -1.59954,0.21852 -3.77544,-1.95738 z m 3.28196,1.14443 c -0.72423,-0.56968 -0.88974,-1.41394 -0.41118,-2.09746 0.21621,-0.30881 0.2398,-0.26191 0.1063,0.21139 -0.39118,1.38691 1.61102,2.60143 2.50762,1.52109 0.47077,-0.56725 0.11771,-1.23616 -1.12902,-2.13905 -1.83128,-1.326244 -1.47351,-3.033024 0.63578,-3.033024 1.04447,0 1.546581,0.38594 1.09267,0.83986 -0.17639,0.17639 -0.32384,0.1687 -0.44236,-0.023 -0.0978,-0.1582 -0.4684,-0.28764 -0.82361,-0.28764 -1.05053,0 -0.77718,0.83004 0.61093,1.855124 1.577701,1.16508 1.824361,2.26198 0.7064,3.14137 -0.90175,0.70932 -1.96089,0.71355 -2.85353,0.0114 z m 20.544891,-0.36107 c -0.94978,-0.42447 -1.06612,-0.75307 -1.20024,-3.390044 -0.0908,-1.78594 -0.0908,-1.78594 0.71546,-1.78656 0.80629,-6.2e-4 0.80629,-6.2e-4 0.71831,2.170404 -0.0919,2.26716 0.1723,2.86397 1.26303,2.85325 0.988,-0.01 1.2041,-0.47098 1.34993,-2.88154 0.15491,-2.560484 0.59886,-3.472104 1.68321,-3.456364 0.54807,0.008 0.54835,0.0114 0.0251,0.30812 -0.83142,0.47147 -0.91768,0.74372 -0.92199,2.91023 -0.006,2.993684 -1.41556,4.263464 -3.63285,3.272504 z m -30.549225,-2.28809 c 0.07863,-2.211194 0.04665,-2.396974 -0.396875,-2.305574 -0.267704,0.0552 -0.465077,0.30674 -0.443484,0.56527 0.0214,0.25622 -0.09766,0.42033 -0.264583,0.36469 -0.574444,-0.19148 -0.323406,-1.08601 0.357966,-1.27554 0.75411,-0.20976 2.95169,-0.265 2.4474,-0.0615 -0.22955,0.0926 -0.33073,0.84845 -0.33073,2.470614 0,1.62216 0.10118,2.37798 0.33073,2.4706 0.1819,0.0734 -0.14552,0.14313 -0.727609,0.15495 -1.058333,0.0215 -1.058333,0.0215 -0.972815,-2.38349 z m 15.855625,2.22855 c 0.90797,-0.36637 0.39001,-4.587274 -0.56291,-4.587274 -0.92574,0 -1.66052,0.5645 -1.36248,1.04674 0.0939,0.1519 0.0446,0.27618 -0.10951,0.27618 -0.61955,0 -0.28614,-1.33376 0.39848,-1.59405 0.86512,-0.32892 4.87757,-0.33873 4.87757,-0.0119 0,0.15176 0.32898,0.15176 0.85815,0 1.29435,-0.37122 2.76798,-0.32683 2.36977,0.0714 -0.4436,0.4436 -0.43209,4.619254 0.0132,4.798944 0.1819,0.0734 -0.14552,0.14312 -0.72761,0.15494 -1.05833,0.0215 -1.05833,0.0215 -0.97281,-2.38349 0.0786,-2.211204 0.0466,-2.396984 -0.39688,-2.305574 -0.26531,0.0547 -0.46585,0.30321 -0.44564,0.55229 0.0491,0.60548 -0.33638,0.5725 -0.89189,-0.0763 -0.2492,-0.29104 -0.72428,-0.52916 -1.05575,-0.52916 -0.69687,0 -0.94002,3.790134 -0.28515,4.445004 0.24694,0.24694 0.0559,0.31285 -0.8599,0.29661 -0.64757,-0.0115 -1.02857,-0.0809 -0.84667,-0.15434 z m 9.27964,-2.22253 c 0.0887,-2.493054 -1.531,-3.711124 -2.08902,-1.570994 -0.15748,0.604 -0.19095,0.61766 -0.3853,0.15722 -0.41694,-0.98779 0.69549,-1.48014 3.34431,-1.48014 2.35194,0 2.35194,0 2.34389,0.72761 -0.007,0.62204 -0.0472,0.66043 -0.27773,0.26458 -0.14833,-0.25466 -0.56142,-0.46302 -0.91799,-0.46302 -0.74852,0 -1.04576,4.293454 -0.31759,4.587274 0.1819,0.0734 -0.14552,0.14313 -0.7276,0.15495 -1.05833,0.0215 -1.05833,0.0215 -0.97297,-2.37748 z m 11.62245,2.22253 c 0.97804,-0.39465 0.37139,-4.622624 -0.65101,-4.537104 -0.79163,0.0662 -1.01514,0.21021 -1.15421,0.74358 -0.15748,0.604 -0.19095,0.61766 -0.3853,0.15722 -0.40897,-0.96892 0.70041,-1.48014 3.21202,-1.48014 2.11052,0 2.21964,0.0286 2.21964,0.58209 0,0.45273 -0.0705,0.51152 -0.3175,0.26458 -0.97723,-0.97724 -1.31098,-0.41371 -1.22263,2.064364 0.0849,2.38185 0.0849,2.38185 -0.97341,2.36036 -0.58208,-0.0118 -0.9095,-0.0815 -0.7276,-0.15495 z m 4.23333,0.006 c 0.44514,-0.18795 0.45663,-4.361734 0.0132,-4.805134 -0.24694,-0.24694 0.0176,-0.3175 1.19063,-0.3175 1.47079,0 1.50792,0.018 1.50008,0.72761 -0.007,0.62204 -0.0472,0.66043 -0.27773,0.26458 -0.47351,-0.81296 -1.03715,-0.55681 -1.03715,0.47132 0,1.057604 0.56244,1.454074 1.35797,0.957264 0.43329,-0.2706 0.49412,-0.22661 0.49412,0.35736 0,0.58396 -0.0608,0.62795 -0.49412,0.35736 -0.80735,-0.5042 -1.40435,-0.0948 -1.30872,0.89759 0.10002,1.03789 1.82419,1.24102 2.53152,0.29825 0.34926,-0.46551 0.36613,-0.45563 0.28433,0.16659 -0.0844,0.6421 -0.15279,0.66296 -2.33593,0.71291 -1.23693,0.0283 -2.10013,-0.0114 -1.91823,-0.0882 z M 98.366519,92.344556 c 0.42407,-0.87545 0.77103,-1.70186 0.77103,-1.83647 0,-0.90195 0.66342,-0.31065 1.376211,1.22659 0.46024,0.9926 0.96396,1.89219 1.11936,1.9991 0.15541,0.10691 -0.0905,0.19621 -0.54648,0.19844 -0.60851,0.003 -0.86585,-0.13671 -0.96742,-0.52512 -0.251721,-0.96258 -1.697421,-0.65254 -1.542171,0.33073 0.0172,0.10914 -0.19657,0.19844 -0.47512,0.19844 -0.46956,0 -0.45029,-0.11594 0.26459,-1.59171 z m 1.3002,-0.11247 c 0,-0.20969 -0.11906,-0.45484 -0.26458,-0.54478 -0.14552,-0.0899 -0.26459,-0.1067 -0.26459,-0.0373 0,0.0694 -0.0723,0.3146 -0.1606,0.54479 -0.10538,0.27463 -0.0144,0.41851 0.26459,0.41851 0.23385,0 0.42518,-0.17157 0.42518,-0.38126 z m 2.865171,-0.27958 c 0.0943,-2.14949 1.99649,-2.94416 3.48483,-1.45582 1.47652,1.47652 0.27821,3.4392 -2.10041,3.4402 -1.47146,6.1e-4 -1.47146,6.1e-4 -1.38442,-1.98438 z m 2.53989,1.3034 c 0.92293,-0.92293 0.27954,-3.02381 -0.92604,-3.02381 -0.45163,0 -0.51027,0.19763 -0.51027,1.7198 0,1.85078 0.46624,2.27408 1.43631,1.30401 z m 2.15371,0.52113 c 0.1555,-0.0646 0.63175,-0.94771 1.05833,-1.96248 0.95248,-2.26578 0.86787,-2.27152 2.02196,0.13734 0.95072,1.98437 0.95072,1.98437 0.18291,1.98437 -0.59141,0 -0.7678,-0.12156 -0.7678,-0.52917 0,-0.39314 -0.17639,-0.52916 -0.68623,-0.52916 -0.46371,0 -0.7311,0.17159 -0.82461,0.52916 -0.0865,0.33072 -0.35006,0.52134 -0.70283,0.50828 -0.31045,-0.0115 -0.43723,-0.0737 -0.28173,-0.13834 z m 2.23081,-1.27434 c 0,-0.40333 -0.36028,-0.91976 -0.55689,-0.79825 -0.38702,0.23919 -0.26911,0.9089 0.16002,0.9089 0.21828,0 0.39687,-0.0498 0.39687,-0.11065 z m 2.77813,-0.5508 c 0,-2.03992 0.73315,-2.54944 2.62419,-1.82378 0.46718,0.17927 0.58039,1.56021 0.14973,1.82637 -0.16972,0.1049 -0.0977,0.45569 0.19533,0.9518 0.70401,1.1918 1.31279,0.90513 2.16167,-1.01794 0.98952,-2.24165 0.96645,-2.23956 1.92412,-0.1744 0.46558,1.004 0.97367,1.91292 1.12907,2.01983 0.15541,0.10691 -0.0905,0.19621 -0.54648,0.19844 -0.60851,0.003 -0.86585,-0.13671 -0.96742,-0.52512 -0.25442,-0.97291 -1.70564,-0.64754 -1.53751,0.34472 0.12827,0.75694 -2.76522,0.006 -3.36693,-0.87388 -0.63332,-0.92604 -0.63332,-0.92604 -0.52507,0.0662 0.0999,0.91536 0.056,0.99219 -0.56623,0.99219 -0.66295,0 -0.67447,-0.0339 -0.67447,-1.98438 z m 6.21771,0.28019 c 0,-0.20969 -0.11907,-0.45484 -0.26459,-0.54478 -0.14552,-0.0899 -0.26458,-0.1067 -0.26458,-0.0373 0,0.0694 -0.0723,0.3146 -0.1606,0.54479 -0.10538,0.27463 -0.0144,0.41851 0.26459,0.41851 0.23385,0 0.42518,-0.17157 0.42518,-0.38126 z m -4.36563,-1.20624 c 0,-0.33954 -0.14883,-0.66697 -0.33073,-0.7276 -0.21816,-0.0727 -0.33073,0.17492 -0.33073,0.7276 0,0.55269 0.11257,0.80033 0.33073,0.72761 0.1819,-0.0606 0.33073,-0.38806 0.33073,-0.72761 z m -10.45104,-7.13778 c 0,-0.25869 -0.18906,-0.62725 -0.42013,-0.81902 -0.3776,-0.31337 -0.36357,-0.36961 0.13851,-0.55534 0.30726,-0.11366 0.65165,-0.45805 0.76531,-0.76531 0.18573,-0.50208 0.24197,-0.51611 0.55534,-0.13851 0.19177,0.23107 0.5652,0.42013 0.82984,0.42013 0.64143,0 0.85684,0.39808 0.41419,0.76545 -0.19633,0.16294 -0.30662,0.56338 -0.24509,0.88988 0.10012,0.53136 -9.1e-4,0.5978 -0.96306,0.63334 -0.8686,0.0321 -1.07491,-0.0506 -1.07491,-0.43062 z m 8.64426,-0.29859 c 0.0772,-0.38584 0.009,-0.78253 -0.15094,-0.88153 -0.50727,-0.31351 -0.31533,-0.67793 0.35708,-0.67793 0.35657,0 0.76491,-0.20836 0.90743,-0.46302 0.22997,-0.41092 0.29026,-0.38115 0.53577,0.26458 0.15215,0.40019 0.45818,0.72761 0.68006,0.72761 0.5194,0 0.52409,0.49947 0.007,0.69807 -0.21828,0.0838 -0.39688,0.35062 -0.39688,0.59302 0,0.33647 -0.24593,0.44073 -1.03969,0.44073 -0.98373,0 -1.03214,-0.0378 -0.89938,-0.70153 z m -4.59526,-0.69956 c 0.10018,-0.51351 -0.0211,-0.90278 -0.41215,-1.32292 -0.55409,-0.59531 -0.55409,-0.59531 0.002,-0.59531 0.56912,0 1.24719,-0.52024 1.45946,-1.11976 0.0791,-0.22353 0.34765,-0.0927 0.80474,0.39215 0.37728,0.40019 0.95053,0.72761 1.27389,0.72761 0.58792,0 0.58792,0 -0.0208,0.64794 -0.42626,0.45374 -0.56916,0.85486 -0.47675,1.33828 0.10707,0.5601 0.051,0.65605 -0.2973,0.50865 -0.8633,-0.36536 -1.56215,-0.4211 -1.73678,-0.13854 -0.35279,0.57083 -0.73821,0.2878 -0.5966,-0.4381 z m 34.26267,80.843444 c 0.55575,-0.55575 0.36078,-0.93742 -1.66688,-3.26298 -1.0914,-1.25176 -1.98437,-2.36611 -1.98437,-2.47633 0,-0.16934 3.06297,0.12522 6.28763,0.60468 0.80585,0.11982 0.84,0.0946 0.51005,-0.37646 -1.10982,-1.5845 -2.82745,-3.15193 -3.27786,-2.99124 -0.33094,0.11807 -0.23904,-0.0855 0.29999,-0.66435 0.85248,-0.91552 1.37193,-1.10746 0.97133,-0.35891 -0.46497,0.86879 2.98844,4.62775 4.12922,4.49457 0.88718,-0.10357 0.88718,-0.10357 0.13004,0.65357 -0.75714,0.75713 -0.75714,0.75713 -3.87123,0.32649 -1.71275,-0.23686 -3.16016,-0.38458 -3.21648,-0.32826 -0.30486,0.30486 2.6519,3.14043 3.14122,3.01247 0.40991,-0.1072 0.33079,0.0647 -0.35595,0.77321 -0.48566,0.50107 -1.00254,0.91104 -1.14861,0.91104 -0.14891,0 -0.12611,-0.13949 0.0519,-0.3175 z m -69.564623,-2.60542 c -0.815424,-0.75371 -0.992365,-1.02589 -0.597488,-0.91909 0.894607,0.24196 4.459744,-3.82214 4.21351,-4.80322 -0.172458,-0.68713 -0.145905,-0.67844 0.963646,0.31514 1.377437,1.23347 1.476525,1.41639 0.685314,1.26515 -0.831238,-0.15891 -4.248756,3.70143 -4.087873,4.61754 0.133609,0.76082 0.181285,0.78008 -1.177109,-0.47552 z m -4.13507,-3.97015 c -2.136967,-2.3521 -2.136922,-2.352 -1.369223,-3.04676 0.543319,-0.4917 0.547261,-0.48989 0.380595,0.17416 -0.220679,0.87926 0.631291,2.01974 1.24634,1.66841 1.269034,-0.72491 4.162096,-3.79919 4.00192,-4.2526 -0.09965,-0.28207 0.285311,-0.048 0.926895,0.56345 1.144816,1.09115 1.456901,1.6967 0.597986,1.1603 -0.460397,-0.28752 -4.792325,3.10342 -4.792325,3.75134 0,0.51839 1.325256,1.35534 1.895719,1.19722 0.617822,-0.17125 0.617822,-0.17125 -0.0068,0.3719 -0.839139,0.72968 -0.71258,0.79942 -2.881105,-1.58742 z m 80.795653,0.20897 c 0.32137,-0.93734 -4.08287,-4.61525 -4.96278,-4.14434 -0.67794,0.36283 -0.37618,-0.22176 0.82952,-1.60698 0.74619,-0.85729 0.79552,-0.87694 0.6645,-0.26458 -0.51258,2.39562 2.47828,2.56643 3.83869,0.21923 0.39522,-0.68192 -1.70699,-2.29212 -2.41513,-1.84988 -0.79838,0.4986 -0.58188,0.005 0.56084,-1.27977 0.90686,-1.01926 1.03942,-1.09542 0.92095,-0.52916 -0.20437,0.97683 4.14499,4.50007 4.94132,4.00275 0.67372,-0.42074 0.33632,0.20549 -0.83699,1.5535 -0.7441,0.85489 -0.79476,0.87522 -0.65937,0.26458 0.50608,-2.28265 -2.2201,-2.25303 -3.57161,0.0388 -0.39138,0.66369 1.45085,2.02405 2.14985,1.58751 0.79018,-0.49347 0.57239,0.002 -0.56406,1.28411 -0.5806,0.65484 -0.98368,0.98075 -0.89573,0.72423 z M 59.089145,143.52231 c -1.400729,-2.89731 -1.426477,-3.03159 -0.671663,-3.50298 0.702245,-0.43856 0.901845,-0.25248 0.470333,0.43848 -0.340559,0.54533 0.0096,1.89911 0.490418,1.89624 0.785218,-0.005 5.222123,-2.56634 5.153449,-2.97535 -0.136566,-0.81334 0.182124,-0.50051 0.867037,0.8511 0.728643,1.43791 0.838576,1.87479 0.348415,1.38463 -0.577887,-0.57788 -5.767916,1.38464 -5.767916,2.18105 0,0.58761 0.837758,1.47043 1.404065,1.47958 0.554301,0.009 -0.299504,0.74005 -0.905075,0.775 -0.08936,0.005 -0.714435,-1.13233 -1.389063,-2.52775 z m 100.902575,-7.25246 c -0.32194,-0.20806 -0.28624,-0.25725 0.18913,-0.26053 0.61773,-0.004 1.13379,-0.69513 1.13379,-1.51784 0,-0.75493 -5.32775,-2.0409 -5.93589,-1.43276 -0.48699,0.48698 -0.52274,0.18988 -0.12623,-1.04887 0.56652,-1.76985 0.54267,-1.73502 0.77557,-1.13257 0.20443,0.52882 1.34357,0.94053 5.06222,1.82959 0.9537,0.22801 1.3517,-1.1792 0.57998,-2.05066 -0.48411,-0.54669 -0.48172,-0.5495 0.30527,-0.3576 1.09693,0.26748 1.08301,0.0862 0.25488,3.31904 -0.78196,3.0526 -1.07745,3.40267 -2.23872,2.6522 z M 59.185468,109.83181 c 0,-0.83994 -5.938413,-2.16696 -6.482207,-1.44854 -0.519807,0.68673 -0.498228,0.49336 0.30076,-2.69525 0.538128,-2.14756 0.785154,-2.75091 1.079973,-2.63778 0.210239,0.0807 0.551109,0.14669 0.757488,0.14669 0.601693,0 0.431983,0.48405 -0.202266,0.57691 -0.555866,0.0814 -0.631879,0.22724 -1.096679,2.10433 -0.158697,0.6409 1.001583,1.28751 2.310312,1.28751 0.4377,0 0.715363,-2.23516 0.31411,-2.52857 -0.693494,-0.50709 -0.486415,-0.58797 0.76955,-0.30057 1.197416,0.27401 1.622136,0.71247 0.690141,0.71247 -0.327523,0 -0.560456,0.25145 -0.674022,0.72761 -0.09545,0.40018 -0.232378,0.92631 -0.304291,1.16918 -0.128992,0.43564 2.583604,1.31993 2.943851,0.95969 0.41997,-0.41997 0.433924,-2.87779 0.01993,-3.50963 -0.517196,-0.78934 -0.282599,-0.85234 0.612322,-0.16444 0.642093,0.49357 0.642093,0.49357 0.02589,3.30141 -0.555993,2.53348 -1.064855,3.63209 -1.064855,2.29898 z M 159.4206,109.14368 c -0.96761,-0.52555 -1.65718,-1.7515 -2.31264,-4.11154 -0.67757,-2.43963 -0.68185,-2.56045 -0.0711,-2.00771 0.75415,0.68249 6.16722,-0.75379 6.41773,-1.70286 0.20882,-0.79114 0.30153,-0.58041 1.03262,2.34708 1.08627,4.34971 -1.66492,7.32266 -5.06662,5.47503 z m 3.83685,-1.94698 c 0.8649,-0.86527 1.18772,-3.09174 0.54193,-3.73753 -0.21371,-0.21372 -2.94169,0.36544 -5.69613,1.20929 -0.68657,0.21034 -0.16948,1.94105 0.85388,2.85798 1.17813,1.0556 3.0598,0.91132 4.30032,-0.32974 z M 60.961102,103.19611 c 0.142346,-0.54433 -0.617583,-0.97767 -4.20253,-2.39645 -1.218416,-0.4822 -1.246119,-0.48152 -1.918229,0.0472 -0.794733,0.62514 -0.807349,0.59816 -0.294421,-0.62945 0.376145,-0.900244 2.054444,-1.686094 6.709063,-3.141474 0.192349,-0.0601 -0.618644,-0.50528 -1.802206,-0.9892 -2.096062,-0.857 -2.165829,-0.86727 -2.687194,-0.39544 -0.535261,0.48441 -0.535261,0.48441 -0.07623,-0.70132 0.562708,-1.45354 0.951151,-1.94024 0.850075,-1.0651 -0.06719,0.58171 0.202957,0.75524 3.035104,1.94955 3.811728,1.60741 3.820188,1.48541 -0.195828,2.82375 -4.078029,1.359014 -4.059795,1.325034 -1.286491,2.397214 2.199572,0.85037 2.287572,0.8631 2.639553,0.38173 0.484052,-0.66198 0.459803,-0.26818 -0.0687,1.11569 -0.435404,1.14008 -0.960304,1.59124 -0.701962,0.60334 z m 95.061868,-1.83899 c 0,-0.12843 0.65466,-1.692044 1.45481,-3.474684 0.80014,-1.78265 1.41059,-3.28539 1.35655,-3.33943 -0.32709,-0.3271 -4.27388,1.96385 -4.40547,2.55719 -0.13031,0.58751 -0.18791,0.53568 -0.59796,-0.53801 -0.54877,-1.43694 -0.57914,-1.83994 -0.088,-1.16832 0.70128,0.95906 6.10179,-1.76982 5.89493,-2.97871 -0.15871,-0.92755 0.25551,-0.70017 0.68468,0.37585 0.38086,0.95488 0.364,1.02251 -1.00568,4.03489 -0.76616,1.68506 -1.36274,3.09506 -1.32572,3.13335 0.32515,0.336324 4.15791,-1.87016 4.03892,-2.32517 -0.0752,-0.28741 -0.0417,-0.52257 0.0744,-0.52257 0.26905,0 1.13262,2.13453 0.94107,2.32608 -0.0788,0.0788 -0.14336,0.005 -0.14336,-0.16531 0,-0.51684 -0.91905,-0.34952 -2.81961,0.51332 -3.46924,1.575024 -4.05956,1.803544 -4.05956,1.571524 z M 65.006301,94.101396 c 0,-0.54345 -4.358421,-3.60447 -5.13221,-3.60447 -0.427825,0 -0.953723,1.62132 -0.687345,2.11905 0.323112,0.60374 0.07633,0.66929 -0.596591,0.15847 -0.641739,-0.48715 -0.631682,-0.51821 1.073767,-3.31617 1.710381,-2.80605 1.836235,-2.90418 2.722639,-2.1229 0.452444,0.39878 0.502062,0.51794 0.172344,0.41387 -0.682614,-0.21544 -1.229784,0.0759 -1.642935,0.87488 -0.561117,1.08508 4.737495,4.2948 5.624915,3.40738 0.545501,-0.5455 0.349899,-0.008 -0.498945,1.37186 -0.925754,1.50454 -1.035639,1.57861 -1.035639,0.69803 z m 87.236479,-0.3919 c -0.84051,-1.27011 -0.85045,-1.31315 -0.2919,-1.26494 0.2342,0.0202 0.6675,-0.28175 0.96289,-0.67102 0.68242,-0.89932 -0.51698,-3.27282 -1.52101,-3.00991 -0.29104,0.0762 -0.73752,0.1402 -0.99218,0.14219 -0.30019,0.002 -0.46598,0.21297 -0.47144,0.59892 -0.008,0.58887 -0.0128,0.58959 -0.41626,0.0661 -0.93511,-1.21326 -0.96781,-1.45501 -0.1771,-1.30917 0.40374,0.0745 2.34141,-0.15603 4.30594,-0.51222 4.34842,-0.78841 4.16963,-1.06714 1.7114,2.66813 -1.13005,1.7171 -2.13068,3.40426 -2.22362,3.74922 -0.16207,0.60154 -0.19837,0.58282 -0.88672,-0.45735 z m 2.59452,-4.88926 c 0.48297,-0.75064 0.48297,-0.75064 -0.81932,-0.56141 -1.64269,0.23869 -1.60374,0.18216 -0.90481,1.31305 0.64905,1.05018 0.53198,1.10122 1.72413,-0.75164 z m -87.033653,0.90748 c 0.127947,-0.46529 0.03063,-0.75046 -0.36116,-1.05833 -0.294963,-0.23178 -1.373604,-1.1139 -2.396979,-1.96027 -1.640927,-1.35711 -1.927354,-1.50318 -2.425181,-1.23675 -0.847801,0.45373 -0.353278,-0.32843 1.381685,-2.18534 2.056509,-2.20105 4.572983,-1.79948 4.036283,0.6441 -0.177157,0.80659 2.855716,1.15259 4.12915,0.47107 0.746544,-0.39954 0.625537,0.0659 -0.230309,0.88585 -0.679395,0.6509 -0.921525,0.71096 -2.866319,0.71096 -2.612345,0 -2.724731,0.0994 -1.381019,1.22209 1.18957,0.99386 1.306435,1.03215 1.761503,0.57708 0.816812,-0.81681 0.193291,0.3219 -0.753361,1.37583 -0.847956,0.94405 -1.03316,1.05873 -0.894293,0.55371 z m -0.680679,-5.19159 c 0,-1.26319 -1.25878,-1.98836 -2.284672,-1.31617 -0.869,0.56939 -0.785163,1.02107 0.366443,1.97426 1.020964,0.84506 1.918229,0.53723 1.918229,-0.65809 z m 76.784262,-1.25911 c -1.04947,-1.06933 -1.55982,-1.94661 -0.73346,-1.2608 0.747,0.61996 5.11663,-3.40709 4.84092,-4.46139 -0.27536,-1.05298 2.20692,1.0837 2.95061,2.53981 1.23913,2.42611 -1.4398,4.1287 -3.40466,2.16383 -0.96277,-0.96277 -2.86363,0.20819 -2.52543,1.55569 0.19953,0.79497 0.16172,0.77697 -1.12798,-0.53714 z m 5.87686,-1.75253 c 0.55651,-0.61493 0.46371,-1.84299 -0.16921,-2.23923 -0.47353,-0.29646 -2.32316,1.15093 -2.32316,1.81795 0,0.95767 1.74067,1.2519 2.49237,0.42128 z m -76.708946,2.05896 c 0.252977,-1.00794 -3.622952,-5.10159 -4.603312,-4.86189 -0.529791,0.12954 -0.238728,-0.24536 1.269422,-1.63505 2.493977,-2.29808 2.59422,-2.35365 3.221569,-1.78591 0.667166,0.60378 0.655315,1.00514 -0.01902,0.64424 -1.459543,-0.78112 -3.190854,1.47647 -2.01,2.621 1.143092,1.10793 2.724132,0.35435 2.422347,-1.15458 -0.157106,-0.78553 -0.157106,-0.78553 0.773607,0.11656 1.085734,1.05233 1.156575,1.29724 0.329506,1.13913 -1.659843,-0.3173 -2.417663,1.31044 -1.172134,2.51766 1.35007,1.30854 3.084356,0.22295 3.107348,-1.94507 0.01109,-1.04574 0.01109,-1.04574 0.508507,-0.1197 0.576056,1.07245 0.486813,1.20955 -2.452664,3.76806 -1.319784,1.14873 -1.513509,1.24672 -1.375174,0.69555 z m 68.090046,-2.77318 c -1.2649,-1.05131 -1.66635,-1.65026 -0.79269,-1.1827 0.49715,0.26607 0.74302,0.063 2.54415,-2.10101 2.12522,-2.55342 2.16508,-2.62754 1.67632,-3.1163 -0.81681,-0.81681 0.3219,-0.19329 1.37584,0.75336 0.77658,0.69754 1.002,1.01896 0.64822,0.92429 -0.9668,-0.2587 -4.80576,4.30147 -4.34538,5.16171 0.38738,0.72382 0.20671,0.65208 -1.10646,-0.43935 z m -63.146732,-1.66828 c 0.513346,-0.822 -2.88153,-5.7223 -3.769171,-5.44057 -0.925096,0.29361 -0.538279,-0.10887 1.271377,-1.32288 2.690813,-1.80512 4.655082,-1.50945 4.655082,0.70071 0,0.81295 -1.047893,2.08283 -1.973721,2.39182 -0.669177,0.22334 1.06841,2.39201 1.803884,2.25142 0.921279,-0.17612 0.742606,0.11621 -0.651937,1.06663 -1.444103,0.98419 -1.786234,1.07459 -1.335514,0.35287 z m 0.497864,-4.53633 c 1.096717,-1.09672 -0.309647,-3.06304 -1.728418,-2.41661 -0.839344,0.38243 -0.836147,0.6043 0.02752,1.90938 0.799576,1.20824 0.953873,1.25426 1.700903,0.50723 z m 59.552608,3.71543 c -1.50761,-0.9906 -1.61932,-1.12326 -0.85305,-1.01305 1.83161,0.26343 2.52733,-2.30293 0.90021,-3.3207 -1.59233,-0.996 -3.68722,0.52405 -2.76263,2.00457 0.48554,0.77747 0.36075,0.76471 -1.04066,-0.10645 -1.53652,-0.95516 -1.88679,-1.35152 -1.00002,-1.13162 0.42525,0.10545 0.70965,0.006 0.91355,-0.32012 0.16283,-0.26029 0.9262,-1.46011 1.69636,-2.66626 1.0633,-1.66524 1.32634,-2.26697 1.093,-2.50032 -0.76795,-0.76795 -0.17686,-0.64943 1.14791,0.23017 1.60821,1.06779 1.7515,1.24031 0.84018,1.01159 -0.93144,-0.23378 -2.31535,1.85956 -1.58681,2.40024 2.00075,1.48485 2.40084,1.53596 3.15091,0.40252 0.58583,-0.88525 0.64895,-1.13637 0.37007,-1.4724 -0.61005,-0.73506 -0.14196,-0.63292 1.31799,0.28761 1.24482,0.78488 1.34637,0.90756 0.75125,0.90756 -0.98066,0 -4.1668,4.8318 -3.6898,5.5956 0.41362,0.6623 0.11856,0.58929 -1.24846,-0.30894 z m -55.070962,-2.37912 c 0,-0.14394 0.119063,-0.26171 0.264584,-0.26171 0.509141,0 0.254024,-0.82441 -1.074155,-3.47111 -1.116502,-2.22489 -1.423956,-2.64546 -1.852084,-2.53351 -1.173617,0.30691 -0.375801,-0.32648 1.548928,-1.2297 3.243317,-1.52199 5.45209,-0.34494 3.87355,2.06422 -0.47135,0.71937 0.957773,1.60743 3.192308,1.9837 1.05833,0.17821 1.05833,0.17821 0.0766,0.66797 -0.9817,0.48977 -0.9817,0.48977 -2.799233,-0.34798 -2.633672,-1.21394 -2.87061,-1.15415 -2.02662,0.51138 0.539553,1.06476 0.791459,1.32094 1.195082,1.21539 0.994592,-0.26009 0.492558,0.24491 -0.943785,0.94936 -0.800365,0.39253 -1.455209,0.59593 -1.455209,0.45199 z m 1.643081,-5.43741 c 0.480654,-1.05492 -0.08768,-1.96805 -1.224918,-1.96805 -1.24838,0 -1.379915,0.3636 -0.675558,1.86743 0.662092,1.4136 1.287166,1.44669 1.900476,0.10062 z m 44.684721,2.90778 c -0.44475,-0.37423 -0.93013,-0.60533 -1.07863,-0.51355 -0.42185,0.26071 -0.29772,-0.43468 0.25916,-1.45186 0.50699,-0.92604 0.50699,-0.92604 0.51808,-0.0541 0.0191,1.50179 1.73458,2.72271 2.60401,1.85328 0.50575,-0.50575 0.38001,-1.06503 -0.60854,-2.70668 -1.82723,-3.03442 0.22197,-5.60291 2.65016,-3.32175 0.30742,0.28881 0.76205,0.5251 1.01029,0.5251 0.40222,0 0.38613,0.12239 -0.1478,1.12448 -0.59914,1.12448 -0.59914,1.12448 -0.68752,0.19844 -0.11367,-1.191 -0.75226,-1.89964 -1.6207,-1.79846 -1.02294,0.11917 -0.99033,1.02571 0.10046,2.79294 1.92693,3.12187 -0.30619,5.618 -2.99897,3.35218 z m -38.828301,-1.30063 c 0.66944,-0.66943 -1.28246,-6.22103 -2.18726,-6.22103 -0.389941,0 -0.553726,-0.0939 -0.40422,-0.23167 0.29135,-0.26852 5.4135,-1.98601 5.50616,-1.84624 0.73254,1.10497 0.6523,1.82855 -0.12478,1.1253 -1.1472,-1.0382 -3.15111,0.25422 -2.67973,1.72828 0.45389,1.41934 2.52656,1.36895 2.77829,-0.0675 0.11045,-0.63029 0.35478,-0.22857 0.85667,1.40853 0.19675,0.6418 0.18731,0.64766 -0.31771,0.19711 -0.47401,-0.42289 -2.63951,-0.12175 -2.5793,0.35868 0.15652,1.24916 0.79482,2.61921 1.22026,2.61921 1.0767,0 2.35431,-0.77093 2.72408,-1.64374 0.29104,-0.687 0.40484,-0.77653 0.54148,-0.42602 0.48055,1.23275 0.1013,1.59381 -2.63685,2.51039 -2.96902,0.99387 -3.25383,1.04547 -2.69709,0.48874 z m 35.899691,0.0347 c -0.80922,-0.26663 -1.01689,-0.53875 -1.74529,-2.28701 -0.95111,-2.2828 -1.36968,-2.46338 -1.86009,-0.80248 -0.30602,1.03644 -0.29643,1.23997 0.078,1.65365 0.51906,0.57356 0.45373,0.57811 -1.01089,0.0705 -1.97714,-0.6853 -2.0166,-0.71275 -1.29704,-0.90218 0.98454,-0.25919 2.70419,-5.74866 1.9692,-6.2861 -0.69561,-0.50864 -0.0435,-0.44463 2.00215,0.19652 3.15677,0.98939 4.17276,4.21804 1.32732,4.21804 -0.7973,0 0.19578,3.10725 1.2464,3.89988 0.63874,0.48188 0.33623,0.58385 -0.70971,0.23922 z m -0.5235,-5.48666 c 0.57408,-1.07268 -0.86845,-3.02832 -1.59917,-2.168 -0.16996,0.20011 -0.79527,2.20834 -0.79527,2.55407 0,0.47846 2.11419,0.13758 2.39444,-0.38607 z m -28.729581,3.39212 c 0.49495,-0.38172 0.50384,-0.5143 0.18403,-2.74418 -0.49355,-3.44138 -0.53059,-3.5387 -1.41404,-3.71539 -0.98733,-0.19746 -0.64146,-0.56685 0.60965,-0.6511 0.95534,-0.0643 1.48977,0.2979 5.866371,3.97627 0.39929,0.33559 0.45436,0.33823 0.34783,0.0167 -0.0696,-0.21013 -0.26549,-1.25358 -0.43529,-2.3188 -0.2519,-1.5803 -0.41331,-1.97679 -0.877,-2.15431 -0.61786,-0.23654 -0.66069,-0.21783 1.54838,-0.67648 0.7964,-0.16535 0.89589,0.2789 0.10857,0.48479 -0.38167,0.0998 -0.51062,0.29371 -0.4164,0.62617 0.28677,1.01187 1.01091,5.91297 0.9158,6.1983 -0.0549,0.16466 -1.43452,-0.79062 -3.06586,-2.12284 -1.631341,-1.33222 -2.965901,-2.32866 -2.965701,-2.2143 1.9e-4,0.11436 0.17863,1.21996 0.39651,2.45688 0.21788,1.23693 0.39631,2.27873 0.39651,2.31511 2e-4,0.0364 0.23849,0.0661 0.52953,0.0661 0.29104,0 0.52917,0.11906 0.52917,0.26458 0,0.14552 -0.22324,0.26458 -0.4961,0.26458 -0.27285,0 -0.89793,0.074 -1.38906,0.1645 -0.83847,0.15445 -0.86123,0.14001 -0.3729,-0.23661 z m 17.736181,-0.54973 c -1.7103,-0.78473 -1.85929,-1.19965 -1.51472,-4.21848 0.2985,-2.61525 0.2906,-2.7151 -0.25064,-3.17006 -0.54402,-0.45729 -0.51749,-0.46517 1.00013,-0.29695 1.52117,0.16862 2.6318,0.63441 1.51268,0.63441 -1.57682,0 -1.51064,6.15093 0.0709,6.58761 2.32667,0.64242 4.83112,-4.5239 2.96899,-6.12459 -0.53315,-0.45829 -0.53092,-0.46275 0.21827,-0.43664 0.90558,0.0315 2.29588,0.43731 1.63242,0.47642 -0.63978,0.0377 -0.72494,0.26612 -1.05633,2.83333 -0.44542,3.45051 -2.14845,4.83137 -4.58168,3.71495 z m -9.45885,-0.70932 c 0.96781,-0.38901 0.87892,-6.60634 -0.0944,-6.60634 -0.20271,0 -0.36857,-0.11906 -0.36857,-0.26458 0,-0.16036 1.14653,-0.26459 2.91041,-0.26459 2.91042,0 2.91042,0 2.91042,0.85263 0,0.84713 -0.003,0.84883 -0.41188,0.26458 -0.56842,-0.81154 -3.29228,-0.88761 -3.29228,-0.0919 0,2.13707 2.03592,3.24669 2.85207,1.55443 0.24692,-0.51198 0.28962,-0.40087 0.30502,0.79375 0.0179,1.38906 0.0179,1.38906 -0.53172,0.83943 -0.30229,-0.30229 -0.72875,-0.48088 -0.94768,-0.39687 -0.21893,0.084 -0.62645,0.15275 -0.90559,0.15275 -0.43879,0 -0.50752,0.19707 -0.50752,1.45521 0,1.75746 2.24562,2.25153 3.42408,0.75335 0.67281,-0.85534 0.80247,-0.75857 0.49727,0.37113 -0.23232,0.85989 -0.23232,0.85989 -3.33361,0.84312 -2.12605,-0.0115 -2.91408,-0.092 -2.50597,-0.25606 z"
       id="path131" /></g></svg>
